<?xml version="1.0" encoding="UTF-8"?><svg id="Camada_2" xmlns="http://www.w3.org/2000/svg" viewBox="0 0 776.27 330.75"><g id="Camada_1-2"><g><path d="M281.54,135.9c-.47-1.79-.99-3.74-1.59-5.85-.6-2.11-1.16-4.27-1.69-6.45-.53-2.18-1.06-4.2-1.59-6.05h-.99c-.53,2.38-1.19,5.03-1.98,7.94-.79,2.91-1.56,5.69-2.28,8.33-.73,2.65-1.36,4.76-1.89,6.35l-11.31,40.09h35.92l-11.31-40.09c-.4-1.06-.83-2.48-1.29-4.27Z"/><path d="M416.43,120.52c-2.71-1.45-6.19-2.18-10.42-2.18h-35.13v39.89h35.32c5.95,0,10.48-1.85,13.59-5.56,3.11-3.7,4.66-8.73,4.66-15.08,0-4.1-.66-7.61-1.98-10.52-1.32-2.91-3.34-5.09-6.05-6.55Z"/><path d="M732.71,.16L36.82,66.19C16,68.16,0,87.81,0,111.38v107.98c0,23.58,16,43.22,36.82,45.2l695.89,66.02c23.44,2.22,43.55-18.65,43.55-45.2V45.36c0-26.55-20.11-47.42-43.55-45.2ZM115.54,219.15c-3.11,5.82-7.41,10.06-12.9,12.7-5.49,2.65-11.81,3.97-18.95,3.97-5.29,0-10.15-.6-14.59-1.79-4.43-1.19-8.2-3.27-11.31-6.25-3.11-2.98-5.49-7.11-7.14-12.4-1.66-5.29-2.48-11.97-2.48-20.04v-3.37h13.69c.13,.66,.2,1.36,.2,2.08v1.89c0,6.62,.66,11.94,1.98,15.98,1.32,4.04,3.54,6.98,6.65,8.83,3.11,1.85,7.44,2.78,13,2.78,2.78,0,5.32-.3,7.64-.89,2.31-.6,4.4-1.59,6.25-2.98,1.85-1.39,3.37-3.11,4.56-5.16,1.19-2.05,2.11-4.53,2.78-7.44,.66-2.91,.99-6.28,.99-10.12,0-4.63-.79-8.5-2.38-11.61-1.59-3.11-3.71-5.69-6.35-7.74-2.65-2.05-5.62-3.9-8.93-5.56-3.31-1.65-6.72-3.24-10.22-4.76-3.51-1.52-6.88-3.21-10.12-5.06-3.24-1.85-6.22-4.2-8.93-7.05-2.71-2.84-4.83-6.22-6.35-10.12-1.52-3.9-2.28-8.7-2.28-14.39,0-6.22,.86-11.54,2.58-15.98,1.72-4.43,4.13-8.14,7.24-11.11,3.11-2.98,6.71-5.16,10.82-6.55,4.1-1.39,8.4-2.08,12.9-2.08,5.29,0,10.05,.66,14.29,1.98,4.23,1.32,7.8,3.47,10.72,6.45,2.91,2.98,5.13,6.78,6.65,11.41,1.52,4.63,2.28,10.25,2.28,16.87v2.98h-13.49v-3.57c0-5.16-.69-9.49-2.08-13-1.39-3.5-3.51-6.18-6.35-8.04-2.85-1.85-6.72-2.78-11.61-2.78-3.44,0-6.65,.66-9.62,1.98-2.98,1.32-5.43,3.57-7.34,6.75-1.92,3.18-2.88,7.54-2.88,13.1,0,4.5,.79,8.27,2.38,11.31,1.59,3.04,3.7,5.59,6.35,7.64,2.65,2.05,5.62,3.87,8.93,5.46,3.31,1.59,6.71,3.11,10.22,4.56,3.5,1.46,6.88,3.18,10.12,5.16,3.24,1.98,6.25,4.37,9.03,7.14s4.93,6.22,6.45,10.32c1.52,4.1,2.28,9.13,2.28,15.08,0,9.79-1.56,17.6-4.66,23.42Zm95.7,16.67h-17.46v-63.8h-48.82v63.8h-17.46V94.92h17.46v61.62h48.82v-61.62h17.46V235.82Zm98.9,0l-10.24-34.93h-47.43l-10.13,34.93h-23.81l42.47-140.9h31.36l42.67,140.9h-24.88Zm116.72,0l-22.23-54.57h-33.74v54.57h-28.58V94.92h67.87c10.05,0,18.29,1.79,24.71,5.36,6.42,3.57,11.14,8.53,14.19,14.88,3.04,6.35,4.56,13.49,4.56,21.43,0,8.87-1.79,16.7-5.36,23.52-3.57,6.82-8.87,12.01-15.88,15.58l26,60.13h-31.55Zm77,0V124.49h-45.44v-29.57h126.81v29.57h-45.45v111.33s-35.92,0-35.92,0Zm215.42-20.04c-5.89,7.01-13.89,12.14-24.01,15.38s-21.6,4.86-34.43,4.86c-10.59,0-20.41-.69-29.47-2.08-9.06-1.39-17.07-3.77-24.01-7.14-6.95-3.37-12.37-8.07-16.27-14.09-3.9-6.02-5.85-13.59-5.85-22.72v-1.09c0-.46,.07-.96,.2-1.49h44.65c-.27,.53-.4,1.03-.4,1.49v1.29c0,3.97,1.12,7.01,3.37,9.13,2.25,2.12,5.39,3.54,9.43,4.27,4.03,.73,8.63,1.09,13.79,1.09,2.12,0,4.27-.03,6.45-.1,2.18-.07,4.33-.26,6.45-.6,2.11-.33,4.03-.82,5.75-1.49,1.72-.66,3.08-1.55,4.07-2.68,.99-1.12,1.49-2.55,1.49-4.27,0-2.38-1.29-4.3-3.87-5.76-2.58-1.45-6.09-2.61-10.52-3.47-4.43-.86-9.4-1.69-14.88-2.48-5.49-.79-11.21-1.75-17.17-2.88-5.95-1.12-11.68-2.68-17.17-4.66-5.49-1.98-10.45-4.56-14.88-7.74-4.43-3.18-7.94-7.24-10.52-12.2-2.58-4.96-3.87-10.95-3.87-17.96,0-7.94,1.85-14.69,5.56-20.24,3.7-5.56,8.76-10.05,15.18-13.49,6.42-3.44,13.76-5.95,22.03-7.54,8.27-1.59,16.97-2.38,26.1-2.38s17.89,.79,25.9,2.38c8,1.59,15.11,4.07,21.33,7.44,6.22,3.37,11.14,7.71,14.78,13,3.64,5.29,5.46,11.71,5.46,19.25v2.38h-44.06v-.79c0-2.51-.76-4.79-2.28-6.85-1.52-2.05-3.87-3.74-7.05-5.06-3.18-1.32-7.34-1.98-12.5-1.98s-9.43,.4-12.8,1.19c-3.37,.79-5.92,1.89-7.64,3.27-1.72,1.39-2.58,2.88-2.58,4.46,0,2.51,1.29,4.5,3.87,5.95,2.58,1.46,6.12,2.65,10.62,3.57,4.5,.93,9.49,1.79,14.98,2.58,5.49,.79,11.18,1.69,17.07,2.68,5.89,.99,11.57,2.38,17.07,4.17,5.49,1.79,10.45,4.24,14.88,7.34,4.43,3.11,7.97,6.98,10.62,11.61,2.65,4.63,3.97,10.32,3.97,17.07,0,11.25-2.95,20.38-8.83,27.39Z"/></g></g></svg>